<svg width="1214" height="280" viewBox="0 0 1214 280" fill="none" xmlns="http://www.w3.org/2000/svg">
<g opacity="0.25">
<path d="M468.318 140.951C464.434 144.718 459.145 147.008 453.31 146.965C447.514 146.923 442.225 144.59 438.282 140.78" stroke="#1C186C" stroke-width="4.63957" stroke-linecap="round" stroke-linejoin="round"/>
<path d="M439.219 149.618C443.415 152.401 448.236 153.984 453.349 154.027C459.341 154.07 464.903 151.973 469.528 148.334C471.402 146.858 471.929 143.968 470.719 141.743L469.45 139.41L464.2 129.908C464.2 129.908 460.473 123.145 456.96 116.767C455.262 113.685 451.319 113.642 449.641 116.681L437.151 139.239L435.921 141.464C434.711 143.669 435.258 146.601 437.17 148.099C437.814 148.655 438.517 149.148 439.219 149.618Z" stroke="#1C186C" stroke-width="4.63957" stroke-linecap="round" stroke-linejoin="round"/>
<path d="M446.343 136.521C445.875 136.307 445.348 136.307 444.88 136.521C444.626 136.628 444.431 136.778 444.236 136.97C443.884 137.377 443.67 137.912 443.67 138.468C443.67 139.046 443.865 139.56 444.236 139.966C444.606 140.373 445.075 140.587 445.602 140.587C446.129 140.587 446.597 140.373 446.968 139.966C447.339 139.56 447.534 139.025 447.534 138.468C447.534 137.912 447.319 137.377 446.968 136.97C446.792 136.756 446.578 136.606 446.343 136.521Z" fill="#201D67"/>
<path d="M454.033 138.619C453.564 138.405 453.037 138.405 452.569 138.619C452.335 138.726 452.12 138.875 451.925 139.068C451.574 139.475 451.359 140.01 451.359 140.566C451.359 141.144 451.554 141.658 451.925 142.064C452.296 142.471 452.764 142.685 453.291 142.685C453.818 142.685 454.286 142.471 454.657 142.064C455.028 141.658 455.223 141.144 455.223 140.566C455.223 140.01 455.008 139.475 454.657 139.068C454.481 138.875 454.286 138.726 454.033 138.619Z" fill="#201D67"/>
<path d="M462.387 136.949C461.665 136.158 460.377 136.158 459.655 136.949C459.303 137.356 459.089 137.891 459.089 138.447C459.089 139.025 459.284 139.539 459.655 139.946C460.025 140.352 460.494 140.566 461.021 140.566C461.274 140.566 461.528 140.502 461.743 140.395C461.977 140.288 462.192 140.138 462.387 139.946C462.758 139.539 462.953 139.025 462.953 138.447C462.933 137.912 462.719 137.356 462.387 136.949Z" fill="#201D67"/>
<path d="M458.932 129.201C458.835 128.923 458.698 128.709 458.522 128.495C457.8 127.703 456.512 127.703 455.79 128.495C455.614 128.709 455.478 128.923 455.38 129.201C455.283 129.458 455.224 129.737 455.224 129.993C455.224 130.272 455.283 130.55 455.38 130.785C455.478 131.042 455.614 131.277 455.79 131.491C456.161 131.898 456.629 132.112 457.156 132.112C457.41 132.112 457.664 132.048 457.878 131.941C458.113 131.834 458.327 131.684 458.522 131.491C458.893 131.085 459.088 130.571 459.088 129.993C459.088 129.737 459.03 129.458 458.932 129.201Z" fill="#201D67"/>
<path d="M451.223 129.201C451.125 128.945 450.989 128.709 450.813 128.495C450.072 127.703 448.783 127.703 448.081 128.495C447.905 128.709 447.769 128.923 447.671 129.201C447.573 129.458 447.515 129.737 447.515 129.993C447.515 130.571 447.71 131.085 448.081 131.491C448.276 131.684 448.491 131.834 448.725 131.941C448.959 132.048 449.213 132.112 449.467 132.112C449.993 132.112 450.462 131.898 450.833 131.491C451.008 131.277 451.145 131.042 451.242 130.785C451.36 130.528 451.399 130.25 451.399 129.993C451.379 129.737 451.34 129.458 451.223 129.201Z" fill="#201D67"/>
<path d="M451.944 123.06C452.315 123.467 452.784 123.681 453.311 123.681C453.564 123.681 453.818 123.616 454.033 123.509C454.267 123.402 454.481 123.253 454.677 123.06C454.852 122.846 454.989 122.611 455.086 122.354C455.184 122.097 455.243 121.819 455.243 121.562C455.243 120.984 455.028 120.47 454.677 120.064C454.13 119.486 453.291 119.272 452.569 119.614C452.315 119.721 452.12 119.871 451.925 120.064C451.574 120.47 451.359 121.005 451.359 121.562C451.359 121.84 451.417 122.118 451.515 122.354C451.632 122.611 451.769 122.846 451.944 123.06Z" fill="#201D67"/>
<path d="M933.855 46.3139C931.493 51.7927 926.419 55.5808 920.525 55.5808C912.387 55.5808 905.771 48.3257 905.771 39.4012C905.771 31.4613 911.001 24.8482 917.91 23.4785C918.144 28.2939 921.364 32.2531 925.58 33.1306C925.502 33.7084 925.443 34.3077 925.443 34.9069C925.443 40.5141 929.054 45.201 933.855 46.3139Z" stroke="#1C186C" stroke-width="4.63957" stroke-linecap="round" stroke-linejoin="round"/>
<path d="M914.416 30.584C913.225 30.584 912.25 31.6541 912.25 32.9596C912.25 34.265 913.225 35.3351 914.416 35.3351C915.606 35.3351 916.582 34.265 916.582 32.9596C916.582 31.6327 915.606 30.584 914.416 30.584Z" fill="#201D67"/>
<path d="M909.635 18.1924C908.444 18.1924 907.469 19.2625 907.469 20.568C907.469 21.8734 908.444 22.9435 909.635 22.9435C910.825 22.9435 911.801 21.8734 911.801 20.568C911.782 19.2411 910.825 18.1924 909.635 18.1924Z" fill="#201D67"/>
<path d="M920.72 37.8809C919.529 37.8809 918.553 38.9509 918.553 40.2564C918.553 41.5619 919.529 42.632 920.72 42.632C921.91 42.632 922.886 41.5619 922.886 40.2564C922.886 38.9295 921.91 37.8809 920.72 37.8809Z" fill="#201D67"/>
<path d="M922.594 47.4053C922.594 47.4053 922.184 47.6621 921.657 48.0045C921.15 48.3255 920.72 48.6038 920.72 48.6038C920.72 48.6038 921.13 48.3469 921.657 48.0045C922.164 47.6621 922.594 47.4053 922.594 47.4053Z" stroke="#1C186C" stroke-width="4.63957" stroke-linecap="round" stroke-linejoin="round"/>
<path d="M912.659 41.2637C912.659 41.2637 913.108 41.4777 913.654 41.7345C914.201 41.9913 914.65 42.2053 914.65 42.2053C914.65 42.2053 914.201 41.9913 913.654 41.7345C913.108 41.4777 912.659 41.2637 912.659 41.2637Z" stroke="#1C186C" stroke-width="4.63957" stroke-linecap="round" stroke-linejoin="round"/>
<path d="M902.979 27.8013C902.979 27.8013 903.331 27.4375 903.76 26.9881C904.189 26.5386 904.541 26.1748 904.541 26.1748C904.541 26.1748 904.189 26.5386 903.76 26.9881C903.331 27.4375 902.979 27.8013 902.979 27.8013Z" stroke="#1C186C" stroke-width="4.63957" stroke-linecap="round" stroke-linejoin="round"/>
<path d="M901.007 39.7225C898.978 37.1972 897.748 33.9013 897.748 30.2845C897.748 22.3873 903.583 15.9883 910.785 15.9883C916.601 15.9883 921.538 20.1616 923.217 25.94" stroke="#1C186C" stroke-width="4.63957" stroke-linecap="round" stroke-linejoin="round"/>
<path d="M532.54 204.577C531.287 204.271 529.984 204.315 528.75 204.704C527.516 205.093 526.39 205.814 525.476 206.802C525.088 207.241 524.871 207.829 524.871 208.44C524.871 209.051 525.088 209.638 525.476 210.077L527.7 212.602" stroke="#1C186C" stroke-width="4.63957" stroke-linecap="round" stroke-linejoin="round"/>
<path d="M547.099 220.82C547.367 222.212 547.315 223.655 546.947 225.019C546.579 226.382 545.907 227.624 544.992 228.632C544.797 228.847 544.566 229.017 544.312 229.134C544.057 229.25 543.784 229.31 543.508 229.31C543.233 229.31 542.959 229.25 542.705 229.134C542.45 229.017 542.219 228.847 542.025 228.632L539.761 226.106" stroke="#1C186C" stroke-width="4.63957" stroke-linecap="round" stroke-linejoin="round"/>
<path d="M529.242 226.621C530.047 228.017 530.474 229.635 530.472 231.286C530.471 232.401 530.269 233.505 529.877 234.533C529.486 235.562 528.911 236.495 528.189 237.279C528.052 237.414 527.875 237.489 527.691 237.489C527.507 237.489 527.33 237.414 527.193 237.279C526.555 236.57 526.045 235.735 525.69 234.817C525.368 234.147 525.144 233.425 525.027 232.677C524.982 232.222 524.982 231.763 525.027 231.308C525.378 229.227 526.345 227.331 527.779 225.914C526.45 227.448 524.704 228.469 522.802 228.825C522.387 228.868 521.968 228.868 521.553 228.825C520.87 228.679 520.212 228.419 519.601 228.055C518.761 227.618 518.006 227.007 517.377 226.257C517.253 226.107 517.185 225.913 517.185 225.711C517.185 225.509 517.253 225.315 517.377 225.165C518.837 223.6 520.799 222.724 522.841 222.726C524.339 222.736 525.802 223.219 527.057 224.117" stroke="#1C186C" stroke-width="4.63957" stroke-linecap="round" stroke-linejoin="round"/>
<path d="M551.628 199.847C551.396 199.557 551.134 199.298 550.847 199.077C550.044 198.516 549.147 198.136 548.209 197.96C547.271 197.783 546.31 197.814 545.382 198.049C543.191 198.413 541.076 199.203 539.137 200.382C535.493 202.312 532.431 205.351 530.316 209.135C528.441 212.94 527.38 217.163 527.213 221.484C527.213 221.784 526.881 224.031 527.096 224.181L529.262 226.62C529.399 226.856 531.428 226.62 531.702 226.513C535.661 226.4 539.543 225.279 543.04 223.239C546.51 220.992 549.305 217.681 551.081 213.715C552.799 209.799 554.75 203.571 551.628 199.847Z" stroke="#1C186C" stroke-width="4.63957" stroke-linecap="round" stroke-linejoin="round"/>
<path d="M538.042 202.33C538.834 205.251 540.261 207.917 542.199 210.099C544.147 212.276 546.553 213.893 549.206 214.807" stroke="#1C186C" stroke-width="4.63957" stroke-linecap="round" stroke-linejoin="round"/>
<path d="M546.475 202.394C546.293 202.187 546.075 202.022 545.834 201.91C545.592 201.797 545.333 201.739 545.07 201.739C544.808 201.739 544.548 201.797 544.307 201.91C544.065 202.022 543.847 202.187 543.665 202.394C543.399 202.697 543.221 203.078 543.151 203.491C543.082 203.904 543.124 204.33 543.274 204.717C543.424 205.103 543.674 205.433 543.993 205.664C544.313 205.896 544.687 206.02 545.07 206.02C545.453 206.02 545.828 205.896 546.147 205.664C546.466 205.433 546.717 205.103 546.866 204.717C547.016 204.33 547.059 203.904 546.989 203.491C546.92 203.078 546.741 202.697 546.475 202.394Z" fill="#201D67"/>
<path d="M730.182 215.429L738.203 239.634L746.224 215.429" stroke="#1C186C" stroke-width="4.63957" stroke-linecap="round" stroke-linejoin="round"/>
<path d="M750.244 214.337C749.912 214.337 749.619 214.358 749.346 214.401C747.199 214.786 746.906 216.541 744.213 216.541C741.188 216.541 741.188 214.337 738.202 214.337C735.177 214.337 735.177 216.541 732.191 216.541C729.498 216.541 729.225 214.808 727.058 214.401C726.805 214.358 726.492 214.337 726.161 214.337" stroke="#1C186C" stroke-width="4.63957" stroke-linecap="round" stroke-linejoin="round"/>
<path d="M748.234 211.041C748.234 212.197 748.078 213.353 747.746 214.401C745.892 214.787 745.658 216.542 743.355 216.542C740.76 216.542 740.76 214.337 738.203 214.337C735.607 214.337 735.607 216.542 733.051 216.542C730.748 216.542 730.494 214.808 728.66 214.401C728.347 213.353 728.172 212.197 728.172 211.041C728.172 204.963 732.66 200.041 738.203 200.041C743.746 200.041 748.234 204.963 748.234 211.041Z" stroke="#1C186C" stroke-width="4.63957" stroke-linecap="round" stroke-linejoin="round"/>
<path d="M748.234 217.634H728.172" stroke="#1C186C" stroke-width="4.63957" stroke-linecap="round" stroke-linejoin="round"/>
<path d="M936.683 218.551H922.241V220.819H936.683V218.551Z" stroke="#1C186C" stroke-width="4.63957" stroke-linecap="round" stroke-linejoin="round"/>
<path d="M945.427 200.446C946.754 200.446 947.768 201.816 947.456 203.228C945.407 212.025 938.127 218.531 929.462 218.531C920.797 218.531 913.518 212.025 911.468 203.228C911.137 201.816 912.151 200.446 913.498 200.446H945.427V200.446Z" stroke="#1C186C" stroke-width="4.63957" stroke-linecap="round" stroke-linejoin="round"/>
<path d="M921.675 200.445C923.949 200.445 925.792 198.424 925.792 195.93C925.792 193.436 923.949 191.414 921.675 191.414C919.4 191.414 917.557 193.436 917.557 195.93C917.557 198.424 919.4 200.445 921.675 200.445Z" stroke="#1C186C" stroke-width="4.63957" stroke-linecap="round" stroke-linejoin="round"/>
<path d="M937.249 200.105C939.523 200.105 941.366 198.083 941.366 195.589C941.366 193.095 939.523 191.073 937.249 191.073C934.974 191.073 933.131 193.095 933.131 195.589C933.131 198.083 934.974 200.105 937.249 200.105Z" stroke="#1C186C" stroke-width="4.63957" stroke-linecap="round" stroke-linejoin="round"/>
<path d="M930.106 200.126C931.82 200.126 933.21 198.602 933.21 196.723C933.21 194.844 931.82 193.32 930.106 193.32C928.393 193.32 927.003 194.844 927.003 196.723C927.003 198.602 928.393 200.126 930.106 200.126Z" stroke="#1C186C" stroke-width="4.63957" stroke-linecap="round" stroke-linejoin="round"/>
<path d="M919.431 191.715L912.952 184.609" stroke="#1C186C" stroke-width="4.63957" stroke-linecap="round" stroke-linejoin="round"/>
<path d="M914.005 207.189H944.919" stroke="#1C186C" stroke-width="4.63957" stroke-linecap="round" stroke-linejoin="round"/>
<path d="M853.349 112.83H818.22C818.22 116.383 820.835 119.251 824.075 119.251H847.494C850.734 119.251 853.349 116.383 853.349 112.83Z" stroke="#1C186C" stroke-width="4.63957" stroke-linecap="round" stroke-linejoin="round"/>
<path d="M835.785 93.5684C827.158 93.5684 820.172 101.23 820.172 110.69V112.83H851.398V110.69C851.398 101.23 844.411 93.5684 835.785 93.5684Z" stroke="#1C186C" stroke-width="4.63957" stroke-linecap="round" stroke-linejoin="round"/>
<path d="M835.785 95.1741C837.671 95.1741 839.2 93.4973 839.2 91.4289C839.2 89.3604 837.671 87.6836 835.785 87.6836C833.898 87.6836 832.369 89.3604 832.369 91.4289C832.369 93.4973 833.898 95.1741 835.785 95.1741Z" fill="#201D67"/>
<path d="M713.256 82.9697C718.662 83.3336 724.068 85.9231 728.342 90.6743C732.577 95.3826 734.9 101.375 735.251 107.367" stroke="#1C186C" stroke-width="4.63957" stroke-linecap="round" stroke-linejoin="round"/>
<path d="M737.474 108.758L735.074 109.4L710.717 115.927C707.439 116.805 704.57 113.595 705.39 109.956L707.107 102.252L707.224 101.76L708.727 95.0608L708.863 94.4188L711.4 83.183L712.025 80.4436C712.611 77.8112 714.933 76.1205 717.314 76.5485C723.169 77.5972 728.672 80.5506 733.063 85.4302C737.435 90.2669 740.07 96.3663 741.026 102.851C741.416 105.505 739.855 108.116 737.474 108.758Z" stroke="#1C186C" stroke-width="4.63957" stroke-linecap="round" stroke-linejoin="round"/>
<path d="M722.76 101.91C724.484 101.91 725.882 100.357 725.882 98.4426C725.882 96.5278 724.484 94.9756 722.76 94.9756C721.035 94.9756 719.637 96.5278 719.637 98.4426C719.637 100.357 721.035 101.91 722.76 101.91Z" stroke="#1C186C" stroke-width="4.63957" stroke-linecap="round" stroke-linejoin="round"/>
<path d="M711.205 100.605C710.132 101.804 708.59 102.189 707.224 101.718L709.175 92.9863C709.917 93.1789 710.62 93.5642 711.205 94.2062C712.806 95.9825 712.806 98.8503 711.205 100.605Z" stroke="#1C186C" stroke-width="4.63957" stroke-linecap="round" stroke-linejoin="round"/>
<path d="M713.665 112.803C713.372 111.562 713.665 110.192 714.523 109.229C715.831 107.774 717.939 107.774 719.246 109.229C719.676 109.7 719.969 110.278 720.105 110.898" stroke="#1C186C" stroke-width="4.63957" stroke-linecap="round" stroke-linejoin="round"/>
<path d="M635.061 114.776L615.076 136.691C612.949 139.024 612.949 142.791 615.076 145.123C617.204 147.456 620.639 147.456 622.766 145.123L642.75 123.208C644.878 120.875 644.878 117.109 642.75 114.776C640.623 112.443 637.188 112.443 635.061 114.776Z" stroke="#1C186C" stroke-width="4.63957" stroke-linecap="round" stroke-linejoin="round"/>
<path d="M619.272 139.602C621.575 137.077 622.395 137.976 624.717 135.45C627.02 132.925 626.2 132.026 628.503 129.479C630.806 126.954 631.645 127.853 633.948 125.327C636.251 122.802 635.431 121.882 637.734 119.356" stroke="#1C186C" stroke-width="4.63957" stroke-linecap="round" stroke-linejoin="round"/>
<path d="M628.152 112.251L612.773 129.116C610.216 131.919 610.216 136.435 612.773 139.239L637.363 112.273C634.826 109.448 630.689 109.448 628.152 112.251Z" stroke="#1C186C" stroke-width="4.63957" stroke-linecap="round" stroke-linejoin="round"/>
<path d="M629.675 147.648L645.053 130.784C647.61 127.98 647.61 123.465 645.053 120.661L620.463 147.627C623 150.452 627.137 150.452 629.675 147.648Z" stroke="#1C186C" stroke-width="4.63957" stroke-linecap="round" stroke-linejoin="round"/>
<path d="M531.333 66.2172H511.817C508.343 66.2172 505.532 63.1354 505.532 59.3259V55.2168H537.617V59.3259C537.617 63.1354 534.807 66.2172 531.333 66.2172Z" stroke="#1C186C" stroke-width="4.63957" stroke-linecap="round" stroke-linejoin="round"/>
<path d="M536.622 48.625H506.528C504.869 48.625 503.522 50.1017 503.522 51.9208C503.522 53.74 504.869 55.2167 506.528 55.2167H536.622C538.281 55.2167 539.627 53.74 539.627 51.9208C539.627 50.1017 538.281 48.625 536.622 48.625Z" stroke="#1C186C" stroke-width="4.63957" stroke-linecap="round" stroke-linejoin="round"/>
<path d="M522.609 31.0332H520.54C512.246 31.0332 505.532 38.3953 505.532 47.491V48.6252H537.617V47.491C537.617 38.3953 530.904 31.0332 522.609 31.0332Z" stroke="#1C186C" stroke-width="4.63957" stroke-linecap="round" stroke-linejoin="round"/>
<path d="M505.318 55.752C506.079 56.6508 506.625 57.8707 508.05 57.8707C509.475 57.8707 510.021 56.6508 510.782 55.752" stroke="#1C186C" stroke-width="4.63957" stroke-linecap="round" stroke-linejoin="round"/>
<path d="M523.643 55.752C524.404 56.6508 524.95 57.8707 526.375 57.8707C527.819 57.8707 528.366 56.6508 529.127 55.752" stroke="#1C186C" stroke-width="4.63957" stroke-linecap="round" stroke-linejoin="round"/>
<path d="M535.566 57.8492C534.142 57.8492 533.595 56.6293 532.834 55.7305" stroke="#1C186C" stroke-width="4.63957" stroke-linecap="round" stroke-linejoin="round"/>
<path d="M514.49 55.752C515.251 56.6508 515.797 57.8707 517.222 57.8707C518.646 57.8707 519.193 56.6508 519.954 55.752" stroke="#1C186C" stroke-width="4.63957" stroke-linecap="round" stroke-linejoin="round"/>
<path d="M1025.56 96.0091C1021.67 99.7758 1016.38 102.066 1010.55 102.023C1004.75 101.98 999.462 99.6474 995.52 95.8379" stroke="#1C186C" stroke-width="4.63957" stroke-linecap="round" stroke-linejoin="round"/>
<path d="M996.457 104.676C1000.65 107.458 1005.47 109.042 1010.59 109.085C1016.58 109.128 1022.14 107.03 1026.77 103.392C1028.64 101.915 1029.17 99.026 1027.96 96.8002L1026.69 94.4675L1021.44 84.9652C1021.44 84.9652 1017.71 78.2023 1014.2 71.8247C1012.5 68.7429 1008.56 68.7001 1006.88 71.7391L994.388 94.2963L993.158 96.522C991.948 98.7264 992.495 101.658 994.408 103.156C995.052 103.713 995.754 104.205 996.457 104.676Z" stroke="#1C186C" stroke-width="4.63957" stroke-linecap="round" stroke-linejoin="round"/>
<path d="M1003.58 91.5775C1003.11 91.3635 1002.58 91.3635 1002.12 91.5775C1001.86 91.6845 1001.67 91.8343 1001.47 92.0269C1001.12 92.4335 1000.91 92.9686 1000.91 93.525C1000.91 94.1029 1001.1 94.6165 1001.47 95.0231C1001.84 95.4297 1002.31 95.6438 1002.84 95.6438C1003.37 95.6438 1003.83 95.4297 1004.2 95.0231C1004.58 94.6165 1004.77 94.0815 1004.77 93.525C1004.77 92.9686 1004.56 92.4335 1004.2 92.0269C1004.03 91.8129 1003.81 91.6631 1003.58 91.5775Z" fill="#201D67"/>
<path d="M1011.27 93.6771C1010.8 93.4631 1010.27 93.4631 1009.81 93.6771C1009.57 93.7841 1009.36 93.9339 1009.16 94.1265C1008.81 94.5332 1008.6 95.0682 1008.6 95.6247C1008.6 96.2025 1008.79 96.7161 1009.16 97.1228C1009.53 97.5294 1010 97.7434 1010.53 97.7434C1011.05 97.7434 1011.52 97.5294 1011.89 97.1228C1012.26 96.7161 1012.46 96.2025 1012.46 95.6247C1012.46 95.0682 1012.24 94.5332 1011.89 94.1265C1011.72 93.9339 1011.52 93.7841 1011.27 93.6771Z" fill="#201D67"/>
<path d="M1019.62 92.006C1018.9 91.2141 1017.61 91.2141 1016.89 92.006C1016.54 92.4126 1016.32 92.9477 1016.32 93.5041C1016.32 94.0819 1016.52 94.5956 1016.89 95.0022C1017.26 95.4088 1017.73 95.6229 1018.26 95.6229C1018.51 95.6229 1018.76 95.5587 1018.98 95.4516C1019.21 95.3446 1019.43 95.1948 1019.62 95.0022C1019.99 94.5956 1020.19 94.0819 1020.19 93.5041C1020.17 92.9691 1019.95 92.4126 1019.62 92.006Z" fill="#201D67"/>
<path d="M1016.17 84.2601C1016.07 83.9819 1015.93 83.7679 1015.76 83.5539C1015.04 82.762 1013.75 82.762 1013.03 83.5539C1012.85 83.7679 1012.71 83.9819 1012.62 84.2601C1012.52 84.5169 1012.46 84.7951 1012.46 85.052C1012.46 85.3302 1012.52 85.6084 1012.62 85.8438C1012.71 86.1006 1012.85 86.336 1013.03 86.55C1013.4 86.9567 1013.86 87.1707 1014.39 87.1707C1014.65 87.1707 1014.9 87.1065 1015.11 86.9995C1015.35 86.8925 1015.56 86.7427 1015.76 86.55C1016.13 86.1434 1016.32 85.6298 1016.32 85.052C1016.32 84.7951 1016.27 84.5169 1016.17 84.2601Z" fill="#201D67"/>
<path d="M1008.46 84.2601C1008.36 84.0033 1008.22 83.7679 1008.05 83.5539C1007.31 82.762 1006.02 82.762 1005.32 83.5539C1005.14 83.7679 1005 83.9819 1004.91 84.2601C1004.81 84.5169 1004.75 84.7951 1004.75 85.052C1004.75 85.6298 1004.95 86.1434 1005.32 86.55C1005.51 86.7427 1005.73 86.8925 1005.96 86.9995C1006.19 87.1065 1006.45 87.1707 1006.7 87.1707C1007.23 87.1707 1007.7 86.9567 1008.07 86.55C1008.24 86.336 1008.38 86.1006 1008.48 85.8438C1008.59 85.587 1008.63 85.3088 1008.63 85.052C1008.61 84.7951 1008.58 84.5169 1008.46 84.2601Z" fill="#201D67"/>
<path d="M1009.18 78.1166C1009.55 78.5233 1010.02 78.7373 1010.55 78.7373C1010.8 78.7373 1011.05 78.6731 1011.27 78.5661C1011.5 78.4591 1011.72 78.3092 1011.91 78.1166C1012.09 77.9026 1012.23 77.6672 1012.32 77.4104C1012.42 77.1536 1012.48 76.8753 1012.48 76.6185C1012.48 76.0407 1012.26 75.5271 1011.91 75.1204C1011.37 74.5426 1010.53 74.3286 1009.81 74.671C1009.55 74.778 1009.36 74.9278 1009.16 75.1204C1008.81 75.5271 1008.6 76.0621 1008.6 76.6185C1008.6 76.8968 1008.65 77.175 1008.75 77.4104C1008.87 77.6672 1009.01 77.9026 1009.18 78.1166Z" fill="#201D67"/>
<path d="M840.174 256.048C837.813 261.527 832.739 265.315 826.845 265.315C818.707 265.315 812.091 258.06 812.091 249.136C812.091 241.196 817.321 234.583 824.23 233.213C824.464 238.028 827.684 241.988 831.9 242.865C831.821 243.443 831.763 244.042 831.763 244.641C831.763 250.248 835.373 254.935 840.174 256.048Z" stroke="#1C186C" stroke-width="4.63957" stroke-linecap="round" stroke-linejoin="round"/>
<path d="M820.736 240.319C819.545 240.319 818.569 241.389 818.569 242.695C818.569 244 819.545 245.07 820.736 245.07C821.926 245.07 822.902 244 822.902 242.695C822.902 241.368 821.926 240.319 820.736 240.319Z" fill="#201D67"/>
<path d="M815.955 227.927C814.764 227.927 813.788 228.997 813.788 230.302C813.788 231.608 814.764 232.678 815.955 232.678C817.145 232.678 818.121 231.608 818.121 230.302C818.101 228.975 817.145 227.927 815.955 227.927Z" fill="#201D67"/>
<path d="M827.04 247.617C825.849 247.617 824.874 248.687 824.874 249.993C824.874 251.298 825.849 252.368 827.04 252.368C828.23 252.368 829.206 251.298 829.206 249.993C829.206 248.666 828.23 247.617 827.04 247.617Z" fill="#201D67"/>
<path d="M828.913 257.139C828.913 257.139 828.503 257.395 827.976 257.738C827.469 258.059 827.04 258.337 827.04 258.337C827.04 258.337 827.449 258.08 827.976 257.738C828.484 257.395 828.913 257.139 828.913 257.139Z" stroke="#1C186C" stroke-width="4.63957" stroke-linecap="round" stroke-linejoin="round"/>
<path d="M818.981 250.998C818.981 250.998 819.43 251.212 819.976 251.469C820.523 251.726 820.972 251.94 820.972 251.94C820.972 251.94 820.523 251.726 819.976 251.469C819.43 251.212 818.981 250.998 818.981 250.998Z" stroke="#1C186C" stroke-width="4.63957" stroke-linecap="round" stroke-linejoin="round"/>
<path d="M809.301 237.537C809.301 237.537 809.652 237.173 810.081 236.723C810.511 236.274 810.862 235.91 810.862 235.91C810.862 235.91 810.511 236.274 810.081 236.723C809.652 237.173 809.301 237.537 809.301 237.537Z" stroke="#1C186C" stroke-width="4.63957" stroke-linecap="round" stroke-linejoin="round"/>
<path d="M807.329 249.458C805.3 246.933 804.07 243.637 804.07 240.02C804.07 232.123 809.905 225.724 817.107 225.724C822.923 225.724 827.86 229.897 829.539 235.675" stroke="#1C186C" stroke-width="4.63957" stroke-linecap="round" stroke-linejoin="round"/>
<path d="M1098.47 159.637C1097.22 159.332 1095.91 159.376 1094.68 159.764C1093.45 160.153 1092.32 160.875 1091.41 161.863C1091.02 162.302 1090.8 162.889 1090.8 163.5C1090.8 164.111 1091.02 164.698 1091.41 165.137L1093.63 167.663" stroke="#1C186C" stroke-width="4.63957" stroke-linecap="round" stroke-linejoin="round"/>
<path d="M1113.03 175.88C1113.3 177.271 1113.24 178.714 1112.88 180.078C1112.51 181.442 1111.84 182.684 1110.92 183.691C1110.73 183.906 1110.5 184.077 1110.24 184.193C1109.99 184.31 1109.71 184.369 1109.44 184.369C1109.16 184.369 1108.89 184.31 1108.63 184.193C1108.38 184.077 1108.15 183.906 1107.95 183.691L1105.69 181.166" stroke="#1C186C" stroke-width="4.63957" stroke-linecap="round" stroke-linejoin="round"/>
<path d="M1095.17 181.68C1095.98 183.076 1096.4 184.694 1096.4 186.346C1096.4 187.461 1096.2 188.564 1095.81 189.593C1095.42 190.621 1094.84 191.554 1094.12 192.338C1093.98 192.474 1093.8 192.548 1093.62 192.548C1093.44 192.548 1093.26 192.474 1093.12 192.338C1092.48 191.629 1091.97 190.794 1091.62 189.877C1091.3 189.206 1091.07 188.484 1090.96 187.737C1090.91 187.282 1090.91 186.822 1090.96 186.367C1091.31 184.286 1092.27 182.39 1093.71 180.974C1092.38 182.508 1090.63 183.529 1088.73 183.885C1088.32 183.928 1087.9 183.928 1087.48 183.885C1086.8 183.739 1086.14 183.479 1085.53 183.114C1084.69 182.677 1083.94 182.067 1083.31 181.316C1083.18 181.167 1083.11 180.972 1083.11 180.771C1083.11 180.569 1083.18 180.374 1083.31 180.225C1084.77 178.659 1086.73 177.783 1088.77 177.785C1090.27 177.796 1091.73 178.279 1092.99 179.176" stroke="#1C186C" stroke-width="4.63957" stroke-linecap="round" stroke-linejoin="round"/>
<path d="M1117.56 154.907C1117.33 154.616 1117.06 154.358 1116.78 154.136C1115.97 153.575 1115.08 153.196 1114.14 153.019C1113.2 152.843 1112.24 152.873 1111.31 153.109C1109.12 153.472 1107.01 154.262 1105.07 155.442C1101.42 157.372 1098.36 160.41 1096.25 164.195C1094.37 168 1093.31 172.222 1093.14 176.544C1093.14 176.843 1092.81 179.09 1093.03 179.24L1095.19 181.68C1095.33 181.915 1097.36 181.68 1097.63 181.573C1101.59 181.459 1105.47 180.338 1108.97 178.298C1112.44 176.051 1115.23 172.741 1117.01 168.775C1118.73 164.858 1120.68 158.63 1117.56 154.907Z" stroke="#1C186C" stroke-width="4.63957" stroke-linecap="round" stroke-linejoin="round"/>
<path d="M1103.97 157.39C1104.77 160.31 1106.19 162.976 1108.13 165.158C1110.08 167.335 1112.48 168.952 1115.14 169.867" stroke="#1C186C" stroke-width="4.63957" stroke-linecap="round" stroke-linejoin="round"/>
<path d="M1112.41 157.454C1112.22 157.247 1112 157.082 1111.76 156.969C1111.52 156.857 1111.26 156.799 1111 156.799C1110.74 156.799 1110.48 156.857 1110.24 156.969C1110 157.082 1109.78 157.247 1109.59 157.454C1109.33 157.756 1109.15 158.138 1109.08 158.55C1109.01 158.963 1109.05 159.39 1109.2 159.776C1109.35 160.163 1109.6 160.492 1109.92 160.724C1110.24 160.956 1110.62 161.079 1111 161.079C1111.38 161.079 1111.76 160.956 1112.08 160.724C1112.4 160.492 1112.65 160.163 1112.8 159.776C1112.95 159.39 1112.99 158.963 1112.92 158.55C1112.85 158.138 1112.67 157.756 1112.41 157.454Z" fill="#201D67"/>
<path d="M615.235 245.048C620.641 245.412 626.047 248.001 630.321 252.752C634.556 257.461 636.878 263.453 637.23 269.446" stroke="#1C186C" stroke-width="4.63957" stroke-linecap="round" stroke-linejoin="round"/>
<path d="M639.452 270.836L637.052 271.478L612.695 278.005C609.417 278.883 606.548 275.673 607.368 272.034L609.085 264.33L609.202 263.838L610.705 257.139L610.841 256.497L613.379 245.261L614.003 242.522C614.589 239.889 616.911 238.199 619.292 238.627C625.147 239.675 630.65 242.629 635.041 247.508C639.413 252.345 642.048 258.444 643.004 264.929C643.394 267.583 641.833 270.194 639.452 270.836Z" stroke="#1C186C" stroke-width="4.63957" stroke-linecap="round" stroke-linejoin="round"/>
<path d="M624.738 263.989C626.462 263.989 627.86 262.437 627.86 260.522C627.86 258.607 626.462 257.055 624.738 257.055C623.013 257.055 621.615 258.607 621.615 260.522C621.615 262.437 623.013 263.989 624.738 263.989Z" stroke="#1C186C" stroke-width="4.63957" stroke-linecap="round" stroke-linejoin="round"/>
<path d="M613.184 262.682C612.111 263.881 610.569 264.266 609.203 263.795L611.155 255.063C611.896 255.256 612.599 255.641 613.184 256.283C614.785 258.06 614.785 260.927 613.184 262.682Z" stroke="#1C186C" stroke-width="4.63957" stroke-linecap="round" stroke-linejoin="round"/>
<path d="M615.644 274.882C615.351 273.641 615.644 272.271 616.502 271.308C617.81 269.853 619.918 269.853 621.225 271.308C621.655 271.779 621.947 272.357 622.084 272.978" stroke="#1C186C" stroke-width="4.63957" stroke-linecap="round" stroke-linejoin="round"/>
<path d="M1178.73 231.677C1184.13 232.041 1189.54 234.63 1193.81 239.381C1198.05 244.09 1200.37 250.082 1200.72 256.074" stroke="#1C186C" stroke-width="4.63957" stroke-linecap="round" stroke-linejoin="round"/>
<path d="M1202.95 257.466L1200.55 258.108L1176.19 264.635C1172.91 265.513 1170.04 262.303 1170.86 258.664L1172.58 250.96L1172.7 250.468L1174.2 243.769L1174.34 243.127L1176.87 231.891L1177.5 229.152C1178.08 226.519 1180.41 224.829 1182.79 225.257C1188.64 226.305 1194.15 229.259 1198.54 234.138C1202.91 238.975 1205.54 245.074 1206.5 251.559C1206.89 254.213 1205.33 256.824 1202.95 257.466Z" stroke="#1C186C" stroke-width="4.63957" stroke-linecap="round" stroke-linejoin="round"/>
<path d="M1188.23 250.617C1189.96 250.617 1191.36 249.064 1191.36 247.15C1191.36 245.235 1189.96 243.683 1188.23 243.683C1186.51 243.683 1185.11 245.235 1185.11 247.15C1185.11 249.064 1186.51 250.617 1188.23 250.617Z" stroke="#1C186C" stroke-width="4.63957" stroke-linecap="round" stroke-linejoin="round"/>
<path d="M1176.68 249.312C1175.61 250.511 1174.06 250.896 1172.7 250.425L1174.65 241.693C1175.39 241.886 1176.09 242.271 1176.68 242.913C1178.28 244.69 1178.28 247.557 1176.68 249.312Z" stroke="#1C186C" stroke-width="4.63957" stroke-linecap="round" stroke-linejoin="round"/>
<path d="M1179.14 261.511C1178.85 260.27 1179.14 258.9 1180 257.937C1181.3 256.482 1183.41 256.482 1184.72 257.937C1185.15 258.408 1185.44 258.986 1185.58 259.606" stroke="#1C186C" stroke-width="4.63957" stroke-linecap="round" stroke-linejoin="round"/>
<path d="M1196.64 69.8345L1176.66 91.7497C1174.53 94.0824 1174.53 97.8491 1176.66 100.182C1178.79 102.515 1182.22 102.515 1184.35 100.182L1204.33 78.2667C1206.46 75.934 1206.46 72.1673 1204.33 69.8345C1202.21 67.5018 1198.77 67.5018 1196.64 69.8345Z" stroke="#1C186C" stroke-width="4.63957" stroke-linecap="round" stroke-linejoin="round"/>
<path d="M1180.86 94.6599C1183.16 92.1345 1183.98 93.0334 1186.3 90.508C1188.6 87.9826 1187.78 87.0838 1190.09 84.537C1192.39 82.0116 1193.23 82.9105 1195.53 80.3851C1197.83 77.8597 1197.01 76.9394 1199.32 74.4141" stroke="#1C186C" stroke-width="4.63957" stroke-linecap="round" stroke-linejoin="round"/>
<path d="M1189.74 67.309L1174.36 84.1734C1171.8 86.977 1171.8 91.4927 1174.36 94.2963L1198.95 67.3304C1196.41 64.5054 1192.27 64.5054 1189.74 67.309Z" stroke="#1C186C" stroke-width="4.63957" stroke-linecap="round" stroke-linejoin="round"/>
<path d="M1191.26 102.706L1206.64 85.8417C1209.19 83.0381 1209.19 78.5223 1206.64 75.7188L1182.05 102.685C1184.58 105.51 1188.72 105.51 1191.26 102.706Z" stroke="#1C186C" stroke-width="4.63957" stroke-linecap="round" stroke-linejoin="round"/>
<path d="M437.655 275.953H418.139C414.665 275.953 411.854 272.871 411.854 269.061V264.952H443.939V269.061C443.939 272.871 441.129 275.953 437.655 275.953Z" stroke="#1C186C" stroke-width="4.63957" stroke-linecap="round" stroke-linejoin="round"/>
<path d="M442.943 258.359H412.849C411.19 258.359 409.843 259.836 409.843 261.655C409.843 263.474 411.19 264.951 412.849 264.951H442.943C444.602 264.951 445.948 263.474 445.948 261.655C445.948 259.836 444.602 258.359 442.943 258.359Z" stroke="#1C186C" stroke-width="4.63957" stroke-linecap="round" stroke-linejoin="round"/>
<path d="M428.931 240.768H426.862C418.568 240.768 411.854 248.13 411.854 257.225V258.36H443.939V257.225C443.939 248.13 437.226 240.768 428.931 240.768Z" stroke="#1C186C" stroke-width="4.63957" stroke-linecap="round" stroke-linejoin="round"/>
<path d="M411.638 265.486C412.399 266.385 412.946 267.605 414.37 267.605C415.795 267.605 416.342 266.385 417.103 265.486" stroke="#1C186C" stroke-width="4.63957" stroke-linecap="round" stroke-linejoin="round"/>
<path d="M429.965 265.486C430.726 266.385 431.272 267.605 432.697 267.605C434.141 267.605 434.688 266.385 435.449 265.486" stroke="#1C186C" stroke-width="4.63957" stroke-linecap="round" stroke-linejoin="round"/>
<path d="M441.889 267.584C440.464 267.584 439.918 266.364 439.157 265.465" stroke="#1C186C" stroke-width="4.63957" stroke-linecap="round" stroke-linejoin="round"/>
<path d="M420.811 265.486C421.572 266.385 422.118 267.605 423.543 267.605C424.967 267.605 425.514 266.385 426.275 265.486" stroke="#1C186C" stroke-width="4.63957" stroke-linecap="round" stroke-linejoin="round"/>
<path d="M1108.13 21.2748H1088.61C1085.14 21.2748 1082.32 18.193 1082.32 14.3835V10.2744H1114.41V14.3835C1114.41 18.193 1111.6 21.2748 1108.13 21.2748Z" stroke="#1C186C" stroke-width="4.63957" stroke-linecap="round" stroke-linejoin="round"/>
<path d="M1113.41 3.68164H1083.32C1081.66 3.68164 1080.31 5.15834 1080.31 6.97747C1080.31 8.7966 1081.66 10.2733 1083.32 10.2733H1113.41C1115.07 10.2733 1116.42 8.7966 1116.42 6.97747C1116.42 5.15834 1115.07 3.68164 1113.41 3.68164Z" stroke="#1C186C" stroke-width="4.63957" stroke-linecap="round" stroke-linejoin="round"/>
<path d="M1099.4 -13.9102H1097.33C1089.04 -13.9102 1082.32 -6.54804 1082.32 2.5476V3.68188H1114.41V2.5476C1114.41 -6.54804 1107.7 -13.9102 1099.4 -13.9102Z" stroke="#1C186C" stroke-width="4.63957" stroke-linecap="round" stroke-linejoin="round"/>
<path d="M1082.11 10.8076C1082.87 11.7065 1083.42 12.9264 1084.84 12.9264C1086.27 12.9264 1086.81 11.7065 1087.58 10.8076" stroke="#1C186C" stroke-width="4.63957" stroke-linecap="round" stroke-linejoin="round"/>
<path d="M1100.44 10.8076C1101.2 11.7065 1101.74 12.9264 1103.17 12.9264C1104.61 12.9264 1105.16 11.7065 1105.92 10.8076" stroke="#1C186C" stroke-width="4.63957" stroke-linecap="round" stroke-linejoin="round"/>
<path d="M1112.36 12.9059C1110.94 12.9059 1110.39 11.686 1109.63 10.7871" stroke="#1C186C" stroke-width="4.63957" stroke-linecap="round" stroke-linejoin="round"/>
<path d="M1091.28 10.8076C1092.04 11.7065 1092.59 12.9264 1094.02 12.9264C1095.44 12.9264 1095.99 11.7065 1096.75 10.8076" stroke="#1C186C" stroke-width="4.63957" stroke-linecap="round" stroke-linejoin="round"/>
<path d="M1035.92 288.792H1016.4C1012.93 288.792 1010.12 285.711 1010.12 281.901V277.792H1042.2V281.901C1042.2 285.711 1039.39 288.792 1035.92 288.792Z" stroke="#1C186C" stroke-width="4.63957" stroke-linecap="round" stroke-linejoin="round"/>
<path d="M1041.21 271.201H1011.11C1009.45 271.201 1008.11 272.678 1008.11 274.497C1008.11 276.316 1009.45 277.793 1011.11 277.793H1041.21C1042.87 277.793 1044.21 276.316 1044.21 274.497C1044.21 272.678 1042.87 271.201 1041.21 271.201Z" stroke="#1C186C" stroke-width="4.63957" stroke-linecap="round" stroke-linejoin="round"/>
<path d="M1027.19 253.608H1025.13C1016.83 253.608 1010.12 260.971 1010.12 270.066V271.2H1042.2V270.066C1042.2 260.971 1035.49 253.608 1027.19 253.608Z" stroke="#1C186C" stroke-width="4.63957" stroke-linecap="round" stroke-linejoin="round"/>
<path d="M1009.9 278.327C1010.66 279.226 1011.21 280.446 1012.64 280.446C1014.06 280.446 1014.61 279.226 1015.37 278.327" stroke="#1C186C" stroke-width="4.63957" stroke-linecap="round" stroke-linejoin="round"/>
<path d="M1028.23 278.327C1028.99 279.226 1029.54 280.446 1030.96 280.446C1032.4 280.446 1032.95 279.226 1033.71 278.327" stroke="#1C186C" stroke-width="4.63957" stroke-linecap="round" stroke-linejoin="round"/>
<path d="M1040.15 280.424C1038.73 280.424 1038.18 279.205 1037.42 278.306" stroke="#1C186C" stroke-width="4.63957" stroke-linecap="round" stroke-linejoin="round"/>
<path d="M1019.08 278.327C1019.84 279.226 1020.38 280.446 1021.81 280.446C1023.23 280.446 1023.78 279.226 1024.54 278.327" stroke="#1C186C" stroke-width="4.63957" stroke-linecap="round" stroke-linejoin="round"/>
</g>
<g opacity="0.25">
<path d="M248.773 270.945C252.661 267.182 257.953 264.898 263.788 264.947C269.584 264.996 274.87 267.335 278.809 271.148" stroke="#1C186C" stroke-width="4.63957" stroke-linecap="round" stroke-linejoin="round"/>
<path d="M277.881 262.309C273.688 259.522 268.869 257.933 263.756 257.885C257.765 257.836 252.2 259.927 247.571 263.561C245.696 265.035 245.166 267.924 246.374 270.151L247.64 272.485L252.879 281.993C252.879 281.993 256.6 288.76 260.106 295.141C261.8 298.225 265.742 298.272 267.424 295.235L279.939 272.691L281.171 270.467C282.383 268.264 281.84 265.331 279.929 263.831C279.285 263.274 278.583 262.781 277.881 262.309Z" stroke="#1C186C" stroke-width="4.63957" stroke-linecap="round" stroke-linejoin="round"/>
<path d="M270.743 275.399C271.211 275.614 271.738 275.614 272.207 275.401C272.461 275.294 272.656 275.144 272.851 274.952C273.203 274.546 273.418 274.011 273.419 273.454C273.419 272.877 273.225 272.363 272.854 271.956C272.484 271.549 272.016 271.334 271.489 271.334C270.962 271.333 270.493 271.547 270.122 271.953C269.751 272.359 269.555 272.894 269.555 273.45C269.554 274.007 269.768 274.542 270.119 274.949C270.294 275.163 270.509 275.313 270.743 275.399Z" fill="#201D67"/>
<path d="M263.056 273.294C263.524 273.508 264.051 273.509 264.52 273.295C264.754 273.188 264.969 273.039 265.164 272.846C265.516 272.44 265.731 271.905 265.732 271.349C265.732 270.771 265.538 270.257 265.167 269.85C264.797 269.443 264.329 269.229 263.802 269.228C263.275 269.228 262.806 269.441 262.435 269.847C262.064 270.254 261.868 270.767 261.868 271.345C261.867 271.901 262.081 272.437 262.432 272.844C262.607 273.036 262.802 273.186 263.056 273.294Z" fill="#201D67"/>
<path d="M254.7 274.953C255.421 275.746 256.709 275.747 257.432 274.956C257.784 274.55 257.999 274.015 258 273.459C258 272.881 257.806 272.367 257.435 271.96C257.065 271.553 256.597 271.339 256.07 271.338C255.816 271.338 255.562 271.402 255.348 271.508C255.113 271.615 254.899 271.765 254.703 271.957C254.332 272.363 254.136 272.877 254.136 273.455C254.155 273.99 254.369 274.546 254.7 274.953Z" fill="#201D67"/>
<path d="M258.146 282.705C258.244 282.983 258.38 283.197 258.555 283.411C259.277 284.204 260.565 284.205 261.288 283.414C261.464 283.2 261.6 282.987 261.698 282.709C261.796 282.452 261.855 282.174 261.855 281.917C261.856 281.639 261.797 281.36 261.7 281.125C261.603 280.868 261.466 280.632 261.291 280.418C260.921 280.011 260.452 279.797 259.925 279.796C259.672 279.796 259.418 279.86 259.203 279.966C258.969 280.073 258.754 280.223 258.559 280.415C258.187 280.821 257.992 281.335 257.991 281.913C257.991 282.169 258.049 282.448 258.146 282.705Z" fill="#201D67"/>
<path d="M265.855 282.713C265.953 282.97 266.089 283.206 266.264 283.42C267.005 284.213 268.293 284.214 268.997 283.423C269.173 283.209 269.309 282.995 269.407 282.717C269.505 282.461 269.564 282.182 269.564 281.926C269.565 281.348 269.37 280.834 269 280.427C268.805 280.234 268.59 280.084 268.356 279.977C268.122 279.87 267.869 279.805 267.615 279.805C267.088 279.804 266.619 280.018 266.248 280.424C266.072 280.638 265.935 280.873 265.838 281.13C265.72 281.386 265.681 281.665 265.681 281.921C265.7 282.178 265.739 282.457 265.855 282.713Z" fill="#201D67"/>
<path d="M184.619 207.25C185.872 207.557 187.176 207.514 188.41 207.127C189.645 206.74 190.771 206.019 191.687 205.032C192.075 204.593 192.292 204.006 192.292 203.395C192.293 202.784 192.077 202.197 191.69 201.758L189.468 199.23" stroke="#1C186C" stroke-width="4.63957" stroke-linecap="round" stroke-linejoin="round"/>
<path d="M170.077 190.991C169.811 189.599 169.865 188.156 170.234 186.793C170.604 185.43 171.277 184.188 172.194 183.182C172.388 182.967 172.619 182.797 172.874 182.681C173.129 182.565 173.402 182.505 173.678 182.505C173.953 182.506 174.226 182.566 174.481 182.683C174.735 182.799 174.966 182.97 175.16 183.185L177.421 185.713" stroke="#1C186C" stroke-width="4.63957" stroke-linecap="round" stroke-linejoin="round"/>
<path d="M187.941 185.21C187.137 183.813 186.713 182.195 186.716 180.543C186.718 179.429 186.921 178.325 187.314 177.297C187.707 176.269 188.282 175.336 189.006 174.553C189.143 174.418 189.32 174.343 189.504 174.344C189.688 174.344 189.865 174.419 190.001 174.554C190.639 175.264 191.148 176.1 191.501 177.017C191.823 177.688 192.047 178.411 192.163 179.158C192.207 179.613 192.206 180.073 192.161 180.528C191.808 182.608 190.839 184.503 189.404 185.918C190.734 184.386 192.481 183.366 194.383 183.013C194.799 182.97 195.217 182.97 195.632 183.014C196.315 183.161 196.973 183.421 197.583 183.787C198.423 184.225 199.177 184.836 199.806 185.587C199.929 185.736 199.998 185.931 199.997 186.133C199.997 186.334 199.929 186.529 199.805 186.678C198.343 188.242 196.38 189.116 194.338 189.112C192.84 189.1 191.377 188.615 190.124 187.716" stroke="#1C186C" stroke-width="4.63957" stroke-linecap="round" stroke-linejoin="round"/>
<path d="M165.527 211.96C165.758 212.25 166.02 212.509 166.307 212.731C167.109 213.293 168.005 213.673 168.943 213.851C169.882 214.028 170.843 213.999 171.77 213.764C173.962 213.403 176.078 212.615 178.018 211.438C181.665 209.511 184.73 206.476 186.849 202.694C188.728 198.891 189.794 194.67 189.965 190.349C189.965 190.049 190.299 187.802 190.085 187.652L187.921 185.21C187.785 184.975 185.755 185.208 185.482 185.315C181.522 185.424 177.639 186.541 174.139 188.577C170.667 190.82 167.869 194.128 166.088 198.092C164.367 202.007 162.408 208.232 165.527 211.96Z" stroke="#1C186C" stroke-width="4.63957" stroke-linecap="round" stroke-linejoin="round"/>
<path d="M179.114 209.491C178.326 206.57 176.902 203.902 174.966 201.718C173.021 199.539 170.616 197.919 167.964 197.002" stroke="#1C186C" stroke-width="4.63957" stroke-linecap="round" stroke-linejoin="round"/>
<path d="M170.682 209.419C170.863 209.626 171.081 209.791 171.323 209.904C171.564 210.016 171.824 210.075 172.086 210.075C172.348 210.075 172.608 210.018 172.85 209.905C173.091 209.793 173.31 209.629 173.492 209.422C173.758 209.12 173.937 208.738 174.007 208.325C174.077 207.913 174.035 207.486 173.885 207.1C173.736 206.713 173.486 206.383 173.167 206.151C172.848 205.919 172.474 205.795 172.091 205.795C171.708 205.794 171.333 205.917 171.013 206.149C170.694 206.38 170.443 206.71 170.293 207.096C170.143 207.482 170.1 207.908 170.169 208.321C170.238 208.734 170.416 209.116 170.682 209.419Z" fill="#201D67"/>
<path d="M82.0019 296.941L102.01 275.047C104.14 272.717 104.144 268.95 102.019 266.615C99.8944 264.28 96.4595 264.277 94.3298 266.607L74.3216 288.501C72.1919 290.831 72.1878 294.598 74.3126 296.933C76.4373 299.268 79.8722 299.272 82.0019 296.941Z" stroke="#1C186C" stroke-width="4.63957" stroke-linecap="round" stroke-linejoin="round"/>
<path d="M97.8177 272.132C95.512 274.655 94.6933 273.755 92.3682 276.278C90.0626 278.801 90.8813 279.701 88.5756 282.245C86.27 284.768 85.4318 283.868 83.1262 286.391C80.8205 288.914 81.6392 289.835 79.3336 292.358" stroke="#1C186C" stroke-width="4.63957" stroke-linecap="round" stroke-linejoin="round"/>
<path d="M88.9087 299.473L104.306 282.625C106.865 279.824 106.87 275.309 104.316 272.502L79.6971 299.442C82.2311 302.27 86.3686 302.274 88.9087 299.473Z" stroke="#1C186C" stroke-width="4.63957" stroke-linecap="round" stroke-linejoin="round"/>
<path d="M87.4238 264.074L72.0269 280.922C69.4673 283.723 69.4625 288.239 72.0161 291.045L96.6354 264.105C94.1014 261.278 89.9639 261.273 87.4238 264.074Z" stroke="#1C186C" stroke-width="4.63957" stroke-linecap="round" stroke-linejoin="round"/>
<path d="M357.888 61.3258C361.776 57.5633 367.067 55.279 372.903 55.3281C378.699 55.3772 383.985 57.7156 387.923 61.5293" stroke="#1C186C" stroke-width="4.63957" stroke-linecap="round" stroke-linejoin="round"/>
<path d="M386.996 52.6899C382.803 49.9032 377.984 48.3143 372.871 48.266C366.88 48.2168 361.315 50.3082 356.686 53.9414C354.811 55.4161 354.281 58.3048 355.488 60.5318L356.754 62.8659L361.994 72.3738C361.994 72.3738 365.714 79.1407 369.22 85.5221C370.915 88.6058 374.857 88.6528 376.539 85.6156L389.053 63.0719L390.285 60.8474C391.498 58.6444 390.954 55.7118 389.043 54.2116C388.4 53.6545 387.698 53.1615 386.996 52.6899Z" stroke="#1C186C" stroke-width="4.63957" stroke-linecap="round" stroke-linejoin="round"/>
<path d="M379.859 65.7829C380.327 65.9974 380.854 65.998 381.322 65.7845C381.576 65.6777 381.772 65.5282 381.967 65.3358C382.319 64.9295 382.534 64.3947 382.534 63.8383C382.535 63.2604 382.34 62.7466 381.97 62.3396C381.6 61.9325 381.132 61.718 380.605 61.7174C380.078 61.7169 379.609 61.9304 379.238 62.3366C378.867 62.7429 378.671 63.2777 378.67 63.8341C378.67 64.3906 378.884 64.9258 379.235 65.3328C379.41 65.547 379.625 65.697 379.859 65.7829Z" fill="#201D67"/>
<path d="M372.172 63.6755C372.64 63.89 373.167 63.8906 373.635 63.6771C373.87 63.5703 374.085 63.4207 374.28 63.2283C374.632 62.8221 374.847 62.2873 374.847 61.7308C374.848 61.153 374.654 60.6391 374.283 60.2321C373.913 59.8251 373.445 59.6106 372.918 59.61C372.391 59.6094 371.922 59.8229 371.551 60.2292C371.18 60.6354 370.984 61.1488 370.983 61.7267C370.983 62.2831 371.197 62.8184 371.548 63.2254C371.723 63.4182 371.918 63.5682 372.172 63.6755Z" fill="#201D67"/>
<path d="M363.817 65.3371C364.538 66.1298 365.826 66.1311 366.549 65.3401C366.901 64.9338 367.116 64.399 367.117 63.8426C367.118 63.2647 366.923 62.7509 366.553 62.3439C366.182 61.9368 365.714 61.7223 365.187 61.7217C364.933 61.7215 364.68 61.7854 364.465 61.8922C364.231 61.9989 364.016 62.1485 363.82 62.3409C363.449 62.7472 363.253 63.2606 363.253 63.8384C363.272 64.3735 363.486 64.9301 363.817 65.3371Z" fill="#201D67"/>
<path d="M367.263 73.0865C367.36 73.3649 367.497 73.579 367.672 73.7932C368.393 74.5858 369.681 74.5872 370.404 73.7961C370.58 73.5823 370.717 73.3685 370.815 73.0903C370.913 72.8336 370.972 72.5555 370.972 72.2986C370.972 72.0204 370.914 71.7421 370.817 71.5066C370.719 71.2497 370.583 71.0141 370.408 70.7999C370.037 70.3929 369.569 70.1784 369.042 70.1778C368.788 70.1776 368.535 70.2415 368.32 70.3483C368.086 70.455 367.871 70.6046 367.675 70.797C367.304 71.2032 367.108 71.7166 367.108 72.2945C367.107 72.5513 367.166 72.8296 367.263 73.0865Z" fill="#201D67"/>
<path d="M374.973 73.0953C375.07 73.3522 375.206 73.5878 375.382 73.802C376.122 74.5946 377.41 74.596 378.114 73.8049C378.29 73.5911 378.427 73.3772 378.524 73.0991C378.622 72.8424 378.681 72.5642 378.681 72.3074C378.682 71.7296 378.487 71.2157 378.117 70.8087C377.922 70.6159 377.708 70.4659 377.474 70.3586C377.239 70.2514 376.986 70.1869 376.732 70.1866C376.205 70.186 375.737 70.3995 375.365 70.8058C375.189 71.0196 375.053 71.2549 374.955 71.5116C374.837 71.7683 374.798 72.0464 374.798 72.3033C374.817 72.5601 374.856 72.8384 374.973 73.0953Z" fill="#201D67"/>
<path d="M374.244 79.2382C373.873 78.8312 373.405 78.6166 372.878 78.6161C372.624 78.6158 372.371 78.6797 372.156 78.7865C371.922 78.8933 371.707 79.0429 371.511 79.2353C371.335 79.4491 371.199 79.6844 371.101 79.9411C371.003 80.1978 370.944 80.4759 370.944 80.7328C370.943 81.3106 371.157 81.8245 371.508 82.2315C372.054 82.8099 372.893 83.0248 373.615 82.6832C373.869 82.5764 374.065 82.4268 374.26 82.2344C374.612 81.8282 374.827 81.2934 374.827 80.7369C374.828 80.4587 374.77 80.1804 374.672 79.9449C374.555 79.688 374.419 79.4524 374.244 79.2382Z" fill="#201D67"/>
<path d="M278.488 28.5919C279.742 28.8986 281.045 28.8562 282.279 28.4688C283.514 28.0813 284.64 27.3611 285.556 26.3737C285.944 25.9351 286.161 25.3482 286.162 24.7372C286.162 24.1261 285.946 23.5388 285.559 23.0993L283.337 20.5715" stroke="#1C186C" stroke-width="4.63957" stroke-linecap="round" stroke-linejoin="round"/>
<path d="M263.947 12.3339C263.68 10.942 263.734 9.49919 264.103 8.13575C264.473 6.7723 265.146 5.53121 266.063 4.52464C266.257 4.31002 266.488 4.13974 266.743 4.02364C266.998 3.90754 267.271 3.84792 267.547 3.84822C267.822 3.84851 268.096 3.90872 268.35 4.02537C268.604 4.14201 268.835 4.31279 269.029 4.52782L271.29 7.05563" stroke="#1C186C" stroke-width="4.63957" stroke-linecap="round" stroke-linejoin="round"/>
<path d="M281.81 6.5529C281.006 5.15614 280.582 3.5376 280.585 1.88606C280.587 0.771289 280.79 -0.332091 281.183 -1.36025C281.576 -2.38841 282.151 -3.32095 282.875 -4.1039C283.012 -4.23911 283.189 -4.31387 283.373 -4.31367C283.557 -4.31347 283.734 -4.23833 283.871 -4.10283C284.508 -3.39336 285.017 -2.55766 285.371 -1.64005C285.693 -0.969141 285.916 -0.246595 286.032 0.500814C286.076 0.956121 286.075 1.4153 286.03 1.87051C285.677 3.95109 284.708 5.84586 283.273 7.26073C284.603 5.7284 286.35 4.70923 288.253 4.35547C288.668 4.3126 289.086 4.31305 289.502 4.35682C290.184 4.5036 290.842 4.76414 291.452 5.12937C292.292 5.56731 293.047 6.17848 293.675 6.92948C293.799 7.07916 293.867 7.27373 293.866 7.47543C293.866 7.67712 293.798 7.87155 293.674 8.02096C292.212 9.58524 290.249 10.459 288.207 10.4549C286.709 10.4426 285.246 9.95814 283.993 9.05923" stroke="#1C186C" stroke-width="4.63957" stroke-linecap="round" stroke-linejoin="round"/>
<path d="M259.396 33.3013C259.627 33.5917 259.889 33.8507 260.176 34.0726C260.978 34.6343 261.875 35.015 262.813 35.1924C263.751 35.3698 264.712 35.3404 265.639 35.1058C267.832 34.7449 269.947 33.9571 271.887 32.7797C275.534 30.8533 278.599 27.8182 280.718 24.036C282.597 20.2332 283.663 16.0115 283.834 11.6907C283.834 11.391 284.169 9.14425 283.954 8.99421L281.79 6.55211C281.654 6.31655 279.624 6.54978 279.351 6.65649C275.391 6.76568 271.508 7.88246 268.008 9.91873C264.536 12.1621 261.738 15.4694 259.957 19.4338C258.236 23.3484 256.277 29.5741 259.396 33.3013Z" stroke="#1C186C" stroke-width="4.63957" stroke-linecap="round" stroke-linejoin="round"/>
<path d="M272.982 30.833C272.194 27.9116 270.77 25.2441 268.833 23.0598C266.889 20.8808 264.484 19.2611 261.832 18.3439" stroke="#1C186C" stroke-width="4.63957" stroke-linecap="round" stroke-linejoin="round"/>
<path d="M264.551 30.7604C264.732 30.9677 264.951 31.1327 265.192 31.2455C265.433 31.3583 265.693 31.4166 265.955 31.4168C266.217 31.4171 266.477 31.3594 266.719 31.2471C266.96 31.1349 267.179 30.9703 267.361 30.7634C267.627 30.4614 267.806 30.0801 267.876 29.6673C267.946 29.2544 267.904 28.8281 267.754 28.4415C267.605 28.0548 267.355 27.725 267.036 27.4929C266.717 27.2609 266.343 27.137 265.96 27.1366C265.577 27.1361 265.202 27.2593 264.883 27.4906C264.563 27.722 264.312 28.0513 264.162 28.4376C264.012 28.8239 263.969 29.2501 264.038 29.6631C264.107 30.0762 264.285 30.4578 264.551 30.7604Z" fill="#201D67"/>
<path d="M80.8525 24.6768L72.8574 0.463059L64.8102 24.6595" stroke="#1C186C" stroke-width="4.63957" stroke-linecap="round" stroke-linejoin="round"/>
<path d="M60.7872 25.7476C61.1189 25.7479 61.4117 25.7268 61.685 25.6843C63.8322 25.3014 64.1268 23.5468 66.82 23.5497C69.845 23.5529 69.8427 25.7573 72.8286 25.7605C75.8536 25.7637 75.856 23.5594 78.842 23.5626C81.5352 23.5655 81.8066 25.2993 83.9724 25.7083C84.2261 25.7513 84.5383 25.7731 84.8701 25.7734" stroke="#1C186C" stroke-width="4.63957" stroke-linecap="round" stroke-linejoin="round"/>
<path d="M62.7929 29.0455C62.7942 27.8898 62.9516 26.7343 63.2845 25.6859C65.1389 25.3027 65.375 23.548 67.6779 23.5505C70.2736 23.5533 70.2712 25.7577 72.8278 25.7604C75.4235 25.7632 75.4258 23.5588 77.9824 23.5616C80.2854 23.5641 80.5372 25.2979 82.3713 25.7065C82.6824 26.7555 82.8568 27.9113 82.8556 29.067C82.849 35.145 78.355 40.0626 72.8124 40.0566C67.2698 40.0506 62.7864 35.1235 62.7929 29.0455Z" stroke="#1C186C" stroke-width="4.63957" stroke-linecap="round" stroke-linejoin="round"/>
<path d="M62.8007 22.454L82.8633 22.4756" stroke="#1C186C" stroke-width="4.63957" stroke-linecap="round" stroke-linejoin="round"/>
<path d="M101.968 166.69C96.5627 166.321 91.1595 163.725 86.8905 158.97C82.6606 154.257 80.3446 148.262 79.9998 142.269" stroke="#1C186C" stroke-width="4.63957" stroke-linecap="round" stroke-linejoin="round"/>
<path d="M77.7789 140.876L80.18 140.236L104.543 133.735C107.823 132.861 110.688 136.074 109.865 139.712L108.139 147.414L108.021 147.906L106.511 154.603L106.374 155.245L103.825 166.478L103.198 169.217C102.609 171.849 100.285 173.537 97.9044 173.106C92.0507 172.051 86.5503 169.092 82.1644 164.208C77.798 159.366 75.1699 153.264 74.2206 146.779C73.8331 144.124 75.3972 141.515 77.7789 140.876Z" stroke="#1C186C" stroke-width="4.63957" stroke-linecap="round" stroke-linejoin="round"/>
<path d="M92.4854 147.739C90.7609 147.737 89.3612 149.288 89.3591 151.203C89.3571 153.118 90.7534 154.672 92.478 154.673C94.2025 154.675 95.6023 153.125 95.6043 151.21C95.6064 149.295 94.21 147.741 92.4854 147.739Z" stroke="#1C186C" stroke-width="4.63957" stroke-linecap="round" stroke-linejoin="round"/>
<path d="M104.038 149.058C105.112 147.861 106.655 147.478 108.02 147.95L106.059 156.68C105.318 156.486 104.616 156.1 104.031 155.457C102.432 153.679 102.435 150.812 104.038 149.058Z" stroke="#1C186C" stroke-width="4.63957" stroke-linecap="round" stroke-linejoin="round"/>
<path d="M101.592 136.856C101.883 138.097 101.589 139.467 100.729 140.429C99.42 141.883 97.3123 141.881 96.0062 140.424C95.5774 139.953 95.2853 139.374 95.1493 138.754" stroke="#1C186C" stroke-width="4.63957" stroke-linecap="round" stroke-linejoin="round"/>
<path d="M175.904 87.3073L195.912 65.4137C198.042 63.0832 198.046 59.3165 195.921 56.9815C193.797 54.6464 190.362 54.6427 188.232 56.9732L168.224 78.8669C166.094 81.1973 166.09 84.964 168.215 87.299C170.34 89.6341 173.775 89.6378 175.904 87.3073Z" stroke="#1C186C" stroke-width="4.63957" stroke-linecap="round" stroke-linejoin="round"/>
<path d="M191.72 62.4983C189.414 65.0212 188.596 64.1215 186.271 66.6444C183.965 69.1673 184.784 70.067 182.478 72.6113C180.172 75.1342 179.334 74.2345 177.028 76.7574C174.723 79.2803 175.542 80.2014 173.236 82.7243" stroke="#1C186C" stroke-width="4.63957" stroke-linecap="round" stroke-linejoin="round"/>
<path d="M182.81 89.8404L198.207 72.9925C200.767 70.1917 200.771 65.676 198.218 62.8696L173.598 89.8091C176.133 92.6368 180.27 92.6412 182.81 89.8404Z" stroke="#1C186C" stroke-width="4.63957" stroke-linecap="round" stroke-linejoin="round"/>
<path d="M181.327 54.4403L165.93 71.2882C163.37 74.089 163.365 78.6047 165.919 81.4111L190.538 54.4716C188.004 51.6439 183.867 51.6395 181.327 54.4403Z" stroke="#1C186C" stroke-width="4.63957" stroke-linecap="round" stroke-linejoin="round"/>
<path d="M279.581 135.977L299.097 135.998C302.571 136.001 305.378 139.086 305.374 142.896L305.37 147.005L273.285 146.97L273.289 142.861C273.294 139.052 276.107 135.973 279.581 135.977Z" stroke="#1C186C" stroke-width="4.63957" stroke-linecap="round" stroke-linejoin="round"/>
<path d="M274.274 153.564L304.368 153.596C306.027 153.598 307.375 152.123 307.377 150.304C307.379 148.485 306.034 147.007 304.375 147.005L274.281 146.972C272.622 146.971 271.274 148.446 271.272 150.265C271.27 152.084 272.615 153.562 274.274 153.564Z" stroke="#1C186C" stroke-width="4.63957" stroke-linecap="round" stroke-linejoin="round"/>
<path d="M288.267 171.171L290.335 171.173C298.63 171.182 305.351 163.827 305.361 154.732L305.362 153.597L273.278 153.563L273.276 154.697C273.267 163.793 279.972 171.162 288.267 171.171Z" stroke="#1C186C" stroke-width="4.63957" stroke-linecap="round" stroke-linejoin="round"/>
<path d="M305.586 146.471C304.826 145.571 304.281 144.351 302.856 144.349C301.431 144.347 300.884 145.567 300.121 146.465" stroke="#1C186C" stroke-width="4.63957" stroke-linecap="round" stroke-linejoin="round"/>
<path d="M287.26 146.451C286.5 145.551 285.954 144.331 284.53 144.329C283.086 144.328 282.538 145.547 281.776 146.445" stroke="#1C186C" stroke-width="4.63957" stroke-linecap="round" stroke-linejoin="round"/>
<path d="M275.337 144.341C276.762 144.343 277.307 145.563 278.067 146.463" stroke="#1C186C" stroke-width="4.63957" stroke-linecap="round" stroke-linejoin="round"/>
<path d="M296.414 146.461C295.653 145.561 295.108 144.341 293.684 144.339C292.259 144.338 291.711 145.557 290.949 146.455" stroke="#1C186C" stroke-width="4.63957" stroke-linecap="round" stroke-linejoin="round"/>
</g>
</svg>
