<svg width="130" height="130" viewBox="0 0 130 130" fill="none" xmlns="http://www.w3.org/2000/svg">
<path d="M99.0803 102.925C78.8003 103.948 58.4169 99.856 43.2489 84.9888C29.5581 71.5694 26.8806 53.3957 46.8972 44.7927C56.3726 40.7201 70.3294 42.2252 76.4286 51.3818C83.2236 61.5829 68.7233 68.5087 60.5963 68.1598C41.6146 67.3452 23.6852 51.8152 22.9103 31.0121C21.9926 6.37645 47.1778 9.36278 47.1038 9.51421" stroke="#6C5FBC" stroke-width="2.88658" stroke-miterlimit="1.5" stroke-linecap="round" stroke-linejoin="round"/>
<path d="M84.3519 120.097C84.9595 117.935 86.3938 116.261 87.7394 114.518C92.157 108.794 98.7447 104.041 106.047 102.906C98.1492 101.599 88.3358 97.239 85.208 89.4298" stroke="#6C5FBC" stroke-width="2.88658" stroke-miterlimit="1.5" stroke-linecap="round" stroke-linejoin="round"/>
</svg>
