<svg width="130" height="130" viewBox="0 0 130 130" fill="none" xmlns="http://www.w3.org/2000/svg">
<path d="M30.2112 102.925C50.4912 103.948 70.8746 99.856 86.0426 84.9888C99.7334 71.5694 102.411 53.3957 82.3943 44.7927C72.9189 40.7201 58.9621 42.2252 52.8629 51.3818C46.0679 61.5829 60.5682 68.5087 68.6952 68.1598C87.6769 67.3452 105.606 51.8152 106.381 31.0121C107.299 6.37645 82.1137 9.36278 82.1877 9.51421" stroke="#6C5FBC" stroke-width="2.88658" stroke-miterlimit="1.5" stroke-linecap="round" stroke-linejoin="round"/>
<path d="M44.9394 120.097C44.3317 117.935 42.8974 116.261 41.5519 114.518C37.1343 108.794 30.5466 104.041 23.2439 102.906C31.1421 101.599 40.9555 97.239 44.0833 89.4298" stroke="#6C5FBC" stroke-width="2.88658" stroke-miterlimit="1.5" stroke-linecap="round" stroke-linejoin="round"/>
</svg>
